<svg xmlns="http://www.w3.org/2000/svg" viewBox="0 0 500 500"><defs><style>.a{fill:#f5deb3;}</style></defs><path class="a" d="M287.1,182.81A37.31,37.31,0,1,0,229.53,136c-1.77,1.78-150.31,184.85-151.69,187a37.31,37.31,0,1,0,57.57,46.86C137.18,368,285.71,184.91,287.1,182.81Z"/><path class="a" d="M373.05,269.67A37.31,37.31,0,1,0,315.5,222.8c-1.79,1.79-79.81,97.95-81.2,100.07a37.31,37.31,0,1,0,57.55,46.87C293.64,368,371.65,271.79,373.05,269.67Z"/><path class="a" d="M454.43,156.46a37.31,37.31,0,1,1-37.31-37.31A37.3,37.3,0,0,1,454.43,156.46Z"/><path class="a" d="M141.56,156.46a37.31,37.31,0,1,1-37.31-37.31A37.3,37.3,0,0,1,141.56,156.46Z"/></svg>